<svg class="pattern" x="0px" y="0px" viewBox="0 0 1445.7 1445.7" style="enable-background:new 0 0 1445.7 1445.7;">
	<defs>
		<style type="text/css">
			.st0{fill:none;}
			.st1{fill:#FFCE03;}
			.st2{fill:#E53F51;}
			.st3{fill:#7561C1;}
			.st4{fill:#9440A0;}
			.st5{fill:#CB5699;}
			.st6{fill:#64AD66;}
			.st7{fill:#F78D2B;}
			.st8{fill:#318CE7;}
			.st9{fill:#364C93;}
			.st10{fill:#9D57A3;}
			.st11{display:none;}
			.st12{display:inline;fill:#F7F0EB;}
			.st13{fill:url(#_Pattern); opacity: 0.2;}
		</style>
		<pattern x="127.6" y="1318.1" width="1445.7" height="1445.7" patternUnits="userSpaceOnUse" id="_Pattern" viewBox="0 -1537.5 1445.7 1445.7" style="overflow:visible;">
			<g>
				<rect y="-1537.5" class="st0" width="1445.7" height="1445.7" />
				<g>
					<path class="st1" d="M287.9-102.7c-12.8,0.1-30.5,1.8-39.2,14.6c-3.3,4.8-2.4,10.5-3,16c-0.6,6.3-4,10-9.4,13
				c-4,2.3-8.5,4.4-10.8,8.4c-3.2,5.4-0.4,11.1-1.8,16.7c-0.9,3.7-3.6,6.4-6.1,9.2c-5.1,5.6-10.5,17.5-4.3,24.5
				c6.6,0.2,14.8,1.3,20.6-2.7c9.2-6.2,11.2-15.6,23.8-15.2c8.9,0.3,17.2-2.3,17.6-12.8c0.2-4.5-2-10,0.4-14.2c2.6-4.6,6.9-4,10.8-6
				c9-4.6,8.5-16.1,7.2-24.6C293.4-78.2,288.9-102.7,287.9-102.7z" />
				</g>
				<g>
					<g>
						<path class="st2" d="M526-850.2c-14.3-1.9-11-10.4-11-10.4c1-3.2,7.3-6.3,7.3-6.3c-15.8,0.5-26-8-26-8
					c-6.8-8.3-0.9-11.7,1.3-12.8c2.2-1.1,9.5-1.8,9.5-1.8c-34-5.7-33.3-26-33.3-26c-0.2-9,8.5-7.8,8.5-7.8
					c3.8,0.3,13.6,5.8,13.6,5.8c-18.1-17.3-13.7-32.2-13.7-32.2c2.2-9.3,13.1-4.2,13.1-4.2c11.9,5.8,20.5,33.8,20.5,33.8
					c-3-9.9-0.9-18.6-0.9-18.6c2.3-8.4,10.9-5.4,10.9-5.4c13.3,5,17.7,26.8,17.7,26.8c0.2-1,9.9-17.2,17.5,1.6
					c7.5,18.8-0.8,35.6-0.8,35.6c1-2.5,13.2-20,16-5.2c1.5,7.7-5.7,22.8-18.3,29.7C544.2-848.2,531.4-849.5,526-850.2z" />
					</g>
					<g>
						<path class="st3" d="M1281-967.5c-4-15.1,5.9-15.3,5.9-15.3c3.6-0.3,9.3,4.7,9.3,4.7c-7.1-15.6-2.7-29.4-2.7-29.4
					c5.5-10.3,11.3-5.7,13.3-3.9c2,1.8,5.7,8.7,5.7,8.7c-8.3-36.4,12.3-44,12.3-44c8.9-3.9,11.3,5.3,11.3,5.3c1.3,3.9-0.2,16-0.2,16
					c9.8-25.3,26.6-27,26.6-27c10.3-1.6,9.6,11.4,9.6,11.4c-0.9,14.3-25.3,34.4-25.3,34.4c8.7-7.1,18.3-8.5,18.3-8.5
					c9.4-1.1,9.9,8.7,9.9,8.7c0.5,15.3-19.5,28.8-19.5,28.8c1.1-0.2,21.3,2.9,5.6,18.1c-15.7,15.3-35.9,13.9-35.9,13.9
					c2.9-0.1,25.4,5,11.8,13.9c-7.1,4.7-25.2,3.7-37.2-6C1286.4-948.5,1282.5-961.8,1281-967.5z" />
					</g>
					<g>
						<path class="st1" d="M1347.7-117c-12.8-5.5-7.5-12.6-7.5-12.6c1.8-2.7,8.5-3.9,8.5-3.9c-14.9-3.7-22.1-14.3-22.1-14.3
					c-4.2-9.5,2.2-11.1,4.6-11.5c2.4-0.4,9.3,0.8,9.3,0.8c-30.2-14.3-24.1-33-24.1-33c2.2-8.4,9.9-5,9.9-5c3.4,1.3,11.1,9,11.1,9
					c-12.3-20.8-4.3-33.6-4.3-33.6c4.5-8.1,13.3-0.5,13.3-0.5c9.6,8.6,10.2,36.8,10.2,36.8c-0.2-10,4.1-17.6,4.1-17.6
					c4.4-7.2,11.6-2.2,11.6-2.2c11.1,8.1,9.4,29.6,9.4,29.6c0.5-0.9,13.8-13.4,15.8,6.1c2,19.5-10.1,32.9-10.1,32.9
					c1.6-2.1,17.5-15.1,16.3-0.6c-0.7,7.6-11.3,19.7-24.8,22.8C1364.1-110.3,1352.5-114.9,1347.7-117z" />
					</g>
					<g>
						<path class="st2" d="M1012.8-932.7c0,0,7.9,13.5-7.5,18.9c-18,6.3-20.3,1.1-31.8,11.1c-11.1,9.6-18.6,13-23.3,11.9
					c-4.8-1.1-7.8-5.8-5.1-10.3c2.3-3.7,9-6.5,14.1-7.5c5.1-1,9.5-5.1,8.4-7.1c-1-1.9-5.7-2.6-13.2-0.8c-7.5,1.9-25,0.6-27.5-9.8
					c-2.5-10.3,13.7-9.1,19.1-8c5.3,1.1,10.6,0.4,11.4-2.2c0.8-2.5-4.2-4.2-4.2-4.2s-16.3-4.4-21.7-12.5c-5.4-8.1-3.9-13.9,4.6-15.2
					c8.5-1.3,16.3,9.7,19.5,12.3c3.2,2.5,8.4,1.9,10.6-1c2.2-2.9-1.4-7.4-2.9-10.1c-1.5-2.8-8.4-12.2-3.7-17.2c4.8-5,9.9-4.6,14.7,0
					c4.7,4.6,3.9,14.2,5.8,20.3c2,6,7.8,3.6,9,1.6c1.2-2.1,0.8-8.6,0.8-11.1c0-2.5,0.9-7.6,6.2-8.3c5.3-0.7,11.5,3.1,11.4,9.5
					c-0.1,6.4-2,18.4-0.5,25.4C1008.8-940.1,1012.8-932.7,1012.8-932.7" />
					</g>
					<g>
						<path class="st2" d="M412-179.1c0,0-9.9,6.2-14.3-5.2c-5.1-13.3-1.3-15.1-9-23.5c-7.4-8.1-10.1-13.6-9.4-17.1
					c0.7-3.6,4.2-6,7.6-4c2.8,1.6,5,6.5,5.9,10.3c0.9,3.8,4.1,7,5.5,6.1c1.4-0.8,1.8-4.3,0.3-9.8c-1.6-5.6-1-18.7,6.7-20.8
					c7.7-2.1,7.1,10.1,6.4,14.1c-0.7,4,0,7.9,1.9,8.5c1.9,0.5,3-3.2,3-3.2s2.9-12.3,8.8-16.5c5.9-4.2,10.3-3.2,11.5,3.1
					c1.2,6.3-6.9,12.4-8.7,14.8c-1.8,2.5-1.2,6.3,1,7.9c2.2,1.5,5.5-1.2,7.5-2.4c2-1.2,8.9-6.6,12.7-3.1c3.9,3.4,3.7,7.3,0.4,11
					c-3.3,3.6-10.5,3.2-15,4.8c-4.5,1.6-2.5,5.9-1,6.7c1.6,0.9,6.4,0.4,8.3,0.4c1.9,0,5.7,0.5,6.3,4.5c0.6,3.9-2,8.7-6.8,8.7
					c-4.8,0.1-13.8-1.1-19,0.2C417.4-182.2,412-179.1,412-179.1" />
					</g>
					<g>
						<path class="st4" d="M761.6-842.2c0,0-19.3,40.1,2.7,52.5c22,12.3,54.1-4.9,62.7-32.1c8.6-27.2,1.7-43.2-23.9-50.6
					S770-860.1,761.6-842.2" />
					</g>
					<g>
						<path class="st5" d="M805.4-661.5c0,0,5.7-13.2,20.2-4.3c14.5,8.9,26.6,26.5,12.1,36.8c-14.5,10.3-28.9-10.8-31.1-14
					C800.7-651.6,805.4-661.5,805.4-661.5" />
					</g>
					<g>
						<path class="st6" d="M629.1-1165.4c0,0,14.8,26.3,30.2,19c15.4-7.4,18.3-31.9,6.6-47.3c-11.7-15.4-23.3-17.8-37.4-6.5
					C614.5-1189,622.5-1177,629.1-1165.4" />
					</g>
					<g>
						<path class="st3" d="M296.6-1353.7c0,0,14.8,26.3,30.2,19c15.4-7.4,18.3-31.9,6.6-47.3c-11.7-15.4-23.3-17.8-37.4-6.5
					C282-1377.3,290-1365.4,296.6-1353.7" />
					</g>
					<g>
						<path class="st7" d="M1303.8-660c0,0-7.1-22.8-29.3-14.6c-22.2,8.2-19.8,23.1-23,29.5c-3.2,6.4-13.7,7.7-18.8,18
					c-5.2,10.3,5.1,33.7,27.2,25.4c22.1-8.2,20.9-8.1,33.1-7.3c9.1,0.6,22.2-11.5,16.4-25.4C1304.9-645.3,1306-650.3,1303.8-660" />
					</g>
					<g>
						<path class="st8" d="M643.2-568.4c0,0-0.9-12.3,11.7-30.1c12.3-17.2,19.7-32.2,19.4-38c0,0,5.1,14.4-0.9,31.3
					c0,0-5.2,15.7-4.5,23.6c0,0,4-12,14.6-24.5c0,0,12.6-13.5,15.5-21.7c0,0,2.5,13.9-5.5,28.8c0,0-8.6,18.2-8.8,24
					c0,0,7.2-9.3,19.4-19.1c0,0,8.2-6.4,11.4-11.2c0,0-8,29.8-19.4,38c0,0,17.3-15.3,41.7-14.9c0,0-18.8,9.6-23.2,21.1
					c0,0-13.5,41.3-45.1,36.8C669.6-524.3,639.6-526.7,643.2-568.4" />
					</g>
					<g>
						<path class="st2" d="M598-1402.6c0,0-7.8-6.4-11.2-23.8c-3.3-16.9-8-29.7-11.6-32.7c0,0,11.4,5.1,18,18.1
					c0,0,6.4,11.8,11.5,15.9c0,0-4.8-9.1-6.3-22.3c0,0-0.9-15-4.1-21.3c0,0,9.6,6.3,14,19.4c0,0,5.9,15.3,9.3,18.6
					c0,0-1.5-9.5-0.5-22.2c0,0,0.8-8.4-0.2-13c0,0,13.1,21.4,11.6,32.7c0,0,0.6-18.8,14.6-33c0,0-4.8,16.5-0.5,25.5
					c0,0,16.9,31.1-3.5,47.3C638.9-1393.5,620.6-1377.2,598-1402.6" />
					</g>
					<g>
						<path class="st4" d="M877.6-1394.3c0.7-3.5,1.9-7.2,4.8-9.3c5.6-4.1,14.1,0.8,16.2,7.4c3.9,12.3-6,42.5-15.1,50.7
					C877.5-1360.7,874.2-1378,877.6-1394.3z" />
						<path class="st4" d="M916.3-1415.4c2.6-4.4,6-8.7,10.8-10.5c4.8-1.8,11.1-0.2,13.2,4.4c1.9,4.3-0.3,9.2-2.5,13.3
					c-8.8,16.9-23.8,57.6-42.3,65.2C901.8-1366.1,903.9-1394.4,916.3-1415.4z" />
						<path class="st4" d="M934.7-1376.2c2.4-2.4,5.3-4.6,8.7-4.9c3.4-0.3,7.2,1.9,7.4,5.3c0.1,1.9-0.9,3.7-2,5.3
					c-8.7,12.7-24.2,21.7-38.4,26.2C919.3-1354.3,925.1-1366.8,934.7-1376.2z" />
					</g>
					<g>
						<path class="st4" d="M315.4-440.7c-1.6-2.6-3-5.5-2.5-8.5c1-5.8,9-7.8,14.2-5c9.6,5.2,21.2,29.3,20.4,39.6
					C335-420.2,322.8-428.8,315.4-440.7z" />
						<path class="st4" d="M326.7-476.1c-1-4.2-1.4-8.8,0.5-12.7c1.9-3.9,6.6-6.7,10.6-5c3.6,1.5,5.2,5.8,6.3,9.6
					c4.6,15.4,19.2,49,12.4,64.4C346.6-437.7,331.3-456.1,326.7-476.1z" />
						<path class="st4" d="M360.7-463c0.1-2.9,0.5-5.9,2.4-8c1.8-2.2,5.5-3,7.6-1.1c1.2,1.1,1.6,2.8,1.9,4.4c2.1,12.8-2,27.3-8,38.4
					C364.2-440.7,360.3-451.7,360.7-463z" />
					</g>
					<path class="st8" d="M1024.9-1093.7c5.3,6.4,14.9,8.8,22.5,5.7c2.9-1.2,5.7-3.3,7-6.2c0.8-1.9,1-4,1.1-6c0.2-3.5,0.1-7.2-1.9-10
				c-1.4-1.8-3.4-3-5.5-4c-6.4-3-18.6-6.7-24.8-0.9C1017.8-1110,1020.8-1098.7,1024.9-1093.7z" />
					<path class="st8" d="M400.7-803.3c0.7,6,5.7,11.3,11.7,12.4c2.3,0.4,4.8,0.2,6.7-1.1c1.3-0.8,2.2-2.1,3.1-3.3
				c1.5-2.1,2.9-4.4,2.7-6.9c-0.1-1.7-0.9-3.2-1.8-4.6c-2.8-4.4-8.9-11.5-15-10.3C402.7-816.2,400.2-808,400.7-803.3z" />
					<path class="st5" d="M319.4-323.1c0.7,5.4,5.1,10.1,10.5,11c2,0.4,4.3,0.2,6-1c1.1-0.7,1.9-1.8,2.7-2.9c1.3-1.8,2.6-3.9,2.4-6.2
				c-0.1-1.5-0.8-2.9-1.6-4.1c-2.5-3.9-8-10.2-13.4-9.2C321.2-334.5,318.9-327.3,319.4-323.1z" />
					<path class="st3" d="M1188.4-217.5c1.1-4.7,1.1-9.6,2-14.3c0.9-4.7,3.2-9.6,7.4-11.9c8.6-4.7,20,3.4,28.8-0.9
				c4.2-2,6.7-6.4,8.7-10.7c3.4-7.3,5.9-15.1,6.3-23.1c0.3-8-1.8-16.3-6.9-22.5c-4.9-5.9-12.2-9.4-19.6-11.6
				c-14.9-4.3-31.5-3.5-45.5,3.3c-14,6.8-25.1,19.8-28.4,35c-2,9.3-1.2,18.9-0.1,28.3c1.9,16.4,5.3,33.8,16.8,46.4
				C1168.7-187.8,1185.7-206.3,1188.4-217.5z" />
					<path class="st1" d="M48.3-1042c4.8,1.5,9.8,1.8,14.6,3.1c4.8,1.3,9.6,4,11.7,8.5c4.2,9.2-4.9,20.4-1.2,29.8
				c1.8,4.5,6.1,7.4,10.4,9.7c7.3,4,15.1,7.2,23.3,8.1c8.2,0.9,16.9-0.7,23.7-5.5c6.5-4.7,10.6-11.9,13.3-19.4
				c5.5-15.1,5.9-32.2-0.1-47.1c-6-14.9-18.6-27.2-34-31.8c-9.4-2.8-19.3-2.6-29.1-2.2c-17,0.8-35.2,3.1-49,14
				C19-1064.4,36.9-1045.5,48.3-1042z" />
					<g>
						<path class="st5" d="M429.3-674.9c-1.7,4.4-2.4,9.1-3.9,13.5c-1.6,4.4-4.4,8.8-8.8,10.4c-8.9,3.3-18.7-6.1-27.8-3.2
					c-4.4,1.4-7.4,5.2-9.9,9.1c-4.3,6.5-7.8,13.6-9.3,21.3c-1.4,7.7-0.6,15.9,3.5,22.6c3.9,6.4,10.4,10.8,17.2,13.9
					c13.8,6.2,29.8,7.8,44.2,3.2c14.4-4.6,26.9-15.5,32.2-29.7c3.2-8.6,3.8-18,4.1-27.2c0.4-16-0.4-33.3-9.6-46.9
					C452.5-700.8,433.5-685.4,429.3-674.9z" />
					</g>
					<g>
						<path class="st6" d="M578.6-290.6c0.5,0.6,1,1.2,1.5,1.8c11.9,12.9,33.7,18.9,48,7c10.9-9.2,15.6-25.2,11.3-38.8
					c-6.9-21.7-36.4-33.2-56.9-24.7c-3.8,1.6-7.4,3.9-9.6,7.3c-1.4,2.1-2.2,4.5-2.9,6.9C566.3-317.4,569.5-301.7,578.6-290.6z" />
					</g>
					<path class="st6" d="M224.7-1248.7c5.6-2.9,10.9-6.6,16.9-8.3c9.6-2.7,20.3,0.1,28.3,6.1c8,6,13.6,14.8,17,24.2
				c2.1,5.8,3.5,12,7.2,17c8.1,10.9,23.5,12,36.7,15c2.5,0.6,5.1,1.3,6.8,3.3c2.6,3,1.7,7.8-0.8,10.9c-2.5,3-6.3,4.7-10,6.1
				c-25,9.8-51.4,15.8-78.2,17.6c-16.2,1.1-33.2,0.5-47.7-6.9c-14.5-7.4-25.7-23.3-23.1-39.4c1.2-7.6,5.7-29.4,11.1-34.8
				C195.6-1244.5,215.4-1243.8,224.7-1248.7z" />
					<path class="st6" d="M885.3-147.6c-4.6-1.9-9.5-3.3-13.7-6.1c-6.5-4.5-10.2-12.5-10.6-20.4c-0.4-7.9,2.2-15.8,6.2-22.6
				c2.5-4.2,5.5-8.3,6.7-13c2.5-10.4-4.6-20.4-9.5-30c-0.9-1.8-1.8-3.8-1.4-5.8c0.5-3.1,3.9-5,7-5c3.1,0,6,1.5,8.8,3
				c18.6,10.3,35.7,23.4,50.3,38.9c8.9,9.4,17.2,20,20,32.6c2.8,12.6-1.2,27.5-12.3,34.1c-5.2,3.1-20.9,11.4-26.9,10.8
				C902.6-132,893-144.4,885.3-147.6z" />
					<path class="st7" d="M820.3-1150.8c4.5,1.2,8.5,3.5,12.2,6.2c3,2.2,6.1,2.8,9.7,2.5c3-0.3,6-0.6,9-0.5
				c11,0.4,20.5,11.3,21.4,21.2c0.3,3.4,0.1,6.9-0.2,10.2c-0.5,4.4,0.2,8.5,2.6,12.4c3.7,6,5.4,12.5,4.2,19.7
				c-0.9,5.5-3,10.5-6.1,15.1c-1.7,2.6-3.4,5.1-5.4,7.5c-4.1,4.9-6.4,10.6-7.2,16.9c-0.5,3.8-1.4,7.5-3.5,10.8
				c-3.1,5-7.7,8.1-13.1,10c-9.6,3.3-19,2.6-27.7-2.7c-6.8-4.1-10.3-10.5-11.6-18.3c-1-6.4-0.8-12.8-0.2-19.2
				c0.6-6.3,0.4-12.6-1.9-18.6c-1.7-4.3-4.4-8-7.4-11.4c-3.9-4.4-8.1-8.7-12.2-13c-3-3.1-5.6-6.5-7.1-10.6c-2.3-6.1-1.5-12,1.1-17.8
				c2.1-4.5,5.1-8.2,9-11.3c4.7-3.7,9.7-7,15.2-9.4c5.4-2.3,10.8-2.4,16.3-0.6C818.3-1151.5,819.3-1151.2,820.3-1150.8z" />
					<path class="st3" d="M779.8-1272.2c-0.1,0.7-0.2,1.9-0.6,2.9c-1.1,3.5-4.1,5-7.5,3.9c-2.4-0.8-4.3-2.2-6.2-3.8
				c-2.1-1.8-4.1-3.6-7-3.9c-1.4-0.2-2.8-0.2-4.2-0.1c-3.3,0.3-6.2-0.6-8.9-2.6c-1.4-1-2.8-2.2-4.2-3.2c-2.3-1.6-4.5-1.9-7.1-0.5
				c-4.5,2.5-10.7,1.4-14.2-2.5c-4.2-4.7-6.5-10-5.8-16.4c0.4-3.5,0.8-7,2-10.4c1.9-4.9,5-8.9,9.4-11.8c2.4-1.5,5-2.1,7.8-1.9
				c9.8,0.7,18.2,4.8,25.6,11.1c9.1,7.7,15.3,17.3,18.6,28.8C778.6-1279.3,779.5-1276,779.8-1272.2z" />
					<path class="st8" d="M501.6-1251.2c-1.1-3.7-2.3-7.4-3.3-11.1c-2.8-10.2-5.1-20.5-5.8-31.1c-0.4-5.8-0.1-11.6,1.1-17.4
				c0.1-0.7,0.3-1.3,0.5-2c0.8-2.3,3.4-2.8,5-0.9c0.6,0.7,1.1,1.4,1.5,2.2c7,14.7,12.2,29.9,12.5,46.3c0.1,3,0.1,6-0.3,8.9
				c-1.4,10.7,2.2,19.9,8.2,28.4c1.7,2.4,3.6,4.7,5.4,7.1c0.3,0.3,0.5,0.7,0.8,1.1c0.9,1.4,0.8,2.6-0.2,3.4
				c-0.9,0.8-2.3,0.8-3.5-0.3c-2.8-2.5-5.7-5-8.4-7.7c-2-2-4.3-3.4-7.1-3.9c-3.6-0.8-7.3-1.7-11-1.9c-9.1-0.4-17.3-3.3-25-8
				c-7-4.4-13.7-9.1-18.9-15.6c-0.8-0.9-1.5-1.9-2.1-3c-1.2-2.3,0.2-4.5,2.7-4.4c1.8,0.1,3.8,0.3,5.5,0.9c7.7,2.9,15.3,5.9,22.9,9.1
				c4.7,2,9.1,4.4,14.1,6.8c-1.6-2.1-3.1-3.9-4.4-5.7c-3.1-4.5-7.4-7.6-11.5-11c-5.6-4.8-12.2-8.1-18.5-11.8
				c-9.8-5.8-19.2-12.2-27.8-19.7c-5.4-4.8-10.8-9.6-15.3-15.4c-1.5-1.9-2.7-4-4-6.1c-0.2-0.3-0.3-0.7-0.5-1.1
				c-1.6-4.3,0.3-7,4.9-6.7c4.2,0.3,8,2,11.7,4c7.7,4.3,13.7,10.5,19.4,17.1c9.4,10.8,19.7,20.8,29.9,30.8c1.6,1.6,3.2,3.2,4.9,4.7
				c-0.2-0.4-0.4-0.8-0.7-1.2c-6.7-10.6-13.6-21.1-20-31.9c-7.8-13.1-14.9-26.7-20.7-40.9c-1.2-3-2-6.1-3-9.2
				c-0.1-0.5-0.2-1-0.3-1.4c-0.2-2.9,2-4.8,4.6-3.4c2.4,1.2,4.6,2.9,6.6,4.8c7.8,7.1,12.8,16.1,17.4,25.4c3.6,7.3,5.7,15.1,8.4,22.7
				c2.5,7.1,5.4,13.9,8.8,20.6c2.4,4.6,4.3,9.6,6.6,14.2c2.3,4.6,5,8.9,7.6,13.4c0.2,0.4,0.6,0.8,0.9,1.1
				C501.4-1251.1,501.5-1251.2,501.6-1251.2z" />
					<path class="st6" d="M1178.2-471c2.7,2.7,5.5,5.4,8.2,8.1c7.4,7.6,14.4,15.5,20,24.4c3.1,4.9,5.7,10.2,7.4,15.7
				c0.2,0.7,0.4,1.3,0.5,2c0.4,2.4-1.6,4.1-3.9,3.3c-0.8-0.3-1.6-0.7-2.3-1.2c-13.3-9.4-25.1-20.3-33.3-34.5c-1.5-2.6-3-5.2-4-8
				c-4-10-11.5-16.4-20.9-20.9c-2.7-1.3-5.4-2.4-8.2-3.6c-0.4-0.2-0.8-0.4-1.2-0.6c-1.4-0.8-1.9-1.9-1.5-3.1
				c0.4-1.2,1.6-1.8,3.2-1.4c3.7,0.9,7.4,1.6,11.1,2.7c2.7,0.8,5.4,0.8,8.1,0c3.5-1.1,7.2-2,10.5-3.6c8.2-4,16.7-5.5,25.7-5
				c8.2,0.4,16.4,1.4,24.1,4.5c1.1,0.5,2.3,0.9,3.3,1.6c2.1,1.4,2,4-0.3,5.2c-1.6,0.8-3.4,1.6-5.2,1.8c-8.1,1.1-16.2,2.2-24.4,3.1
				c-5,0.5-10.1,0.6-15.6,0.8c2.5,1.1,4.6,1.9,6.6,2.9c4.9,2.4,10.2,3,15.4,4.1c7.3,1.5,14.6,1.2,21.9,1.4
				c11.4,0.3,22.7,1.4,33.9,3.9c7.1,1.6,14.1,3.2,20.8,6.1c2.2,1,4.3,2.2,6.5,3.4c0.3,0.2,0.6,0.5,0.9,0.7c3.5,3,3.1,6.3-1.1,8.2
				c-3.9,1.8-8,2.1-12.2,2.1c-8.8-0.1-17.1-2.6-25.2-5.6c-13.5-5-27.3-8.7-41-12.6c-2.2-0.6-4.3-1.2-6.6-1.7
				c0.4,0.3,0.8,0.5,1.2,0.7c11,6.1,22.1,12,32.9,18.3c13.2,7.7,25.9,16.2,37.9,25.8c2.5,2,4.7,4.4,7.1,6.6c0.4,0.3,0.7,0.7,0.9,1.1
				c1.6,2.5,0.6,5.1-2.4,5.2c-2.7,0.1-5.5-0.3-8.1-1c-10.2-2.4-19-7.9-27.5-13.8c-6.7-4.6-12.3-10.4-18.3-15.8
				c-5.6-5-11.4-9.6-17.7-13.8c-4.3-2.9-8.3-6.3-12.7-9.2c-4.2-2.9-8.7-5.4-13.1-8.1c-0.4-0.2-0.9-0.4-1.3-0.6
				C1178.3-471.1,1178.2-471,1178.2-471z" />
					<path class="st2" d="M1111.3-1360.3c-1.1,4.4-1.3,8.8,0.1,13.2c1.6,4.8,5.3,7.5,10.4,7.5c4,0,7.4-1.6,10.7-3.6
				c4.4-2.8,8-6.5,11.4-10.5c4.8-5.8,7.8-12.4,8.7-20c0.5-4.6-0.1-11.7-1.5-16c-3.3-9.9-6.7-14.9-14.7-21.9
				c-6.7-5.8-16.7-9.5-25.4-10.5c-6.2-0.7-12.4-0.7-18.4,1.2c-4.9,1.5-9.1,4.1-11.4,9c-1.6,3.5-1.3,6.9,1.2,9.7
				c1.4,1.6,3.2,3.2,5.1,4.1c3.7,1.8,7.6,3,11.4,4.5c0.5,0.2,0.9,0.3,1.1,0.4c-3.3,1.9-6.8,3.6-9.9,5.8c-4,2.8-7.2,6.4-8.6,11.3
				c-1.7,5.9,0.9,11,6.8,12.7c1.7,0.5,3.5,1,5.2,0.8c4-0.4,8-1.1,12-1.9c2.6-0.5,5.1-1.4,7.8-2.2
				C1112.5-1364.5,1111.8-1362.4,1111.3-1360.3z" />
					<path class="st8" d="M116-365c-4.4-0.8-8.9-0.8-13.1,1c-4.7,1.9-7.1,5.7-6.8,10.8c0.2,4,2,7.3,4.3,10.4c3.1,4.3,7,7.6,11.2,10.7
				c6.1,4.5,12.9,7,20.5,7.4c4.6,0.2,11.7-0.8,15.9-2.5c9.7-3.9,14.5-7.7,20.9-16.1c5.4-7.1,8.4-17.3,8.9-26
				c0.3-6.2-0.1-12.4-2.3-18.3c-1.8-4.8-4.7-8.8-9.7-10.8c-3.5-1.4-6.9-0.8-9.6,1.9c-1.5,1.5-3,3.4-3.7,5.3
				c-1.5,3.8-2.5,7.8-3.8,11.7c-0.1,0.5-0.3,1-0.3,1.1c-2.1-3.1-4-6.5-6.4-9.5c-3.1-3.8-6.9-6.8-11.9-7.9c-6-1.4-10.9,1.6-12.3,7.6
				c-0.4,1.7-0.7,3.5-0.5,5.2c0.7,4,1.6,7.9,2.6,11.8c0.7,2.6,1.8,5,2.7,7.6C120.2-364.1,118.1-364.7,116-365z" />
					<path class="st9" d="M258-736.4c-4.2-0.2-8.5-0.6-12.7-0.4c-5.6,0.2-10.6,2-14.5,6.4c-4.4,5-3.8,10.3,1.5,14.2
				c3.6,2.7,7.5,4.6,11.8,5.6c14.2,3.5,28.4,3.2,42.3-0.8c14.4-4.2,21.6-15.2,19.9-29.7c-1.1-9.1-3.3-18-7.4-26.3
				c-3.8-7.8-7.9-15.4-13.8-21.8c-1.3-1.4-2.9-2.7-4.6-3.5c-2.7-1.4-5.2-0.4-6.4,2.4c-0.8,1.8-1.3,3.8-1.7,5.7
				c-1.2,7.2,0.3,14.2,2.3,21.1c0.1,0.3,0.4,0.6,0.6,1c-0.2,0.1-0.4,0.1-0.6,0.2c-0.7-0.5-1.3-1-2-1.4c-3.4-2.2-6.8-4.6-10.4-6.6
				c-2.4-1.3-5-2.2-7.7-2.7c-4.4-0.8-8,1.6-9.4,5.9c-1.2,3.4-0.9,6.8,0,10.2c1.9,6.9,5.9,12.5,10.8,17.5c1,1.1,2.2,2.1,3.5,3.3
				C258.9-736.3,258.4-736.4,258-736.4z" />
					<path class="st1" d="M1051-589.5c-4.6-1.1-9.2-2.4-13.9-3.2c-3.1-0.5-6.3-0.7-9.4-0.2c-5.2,0.9-7.4,5.5-5.1,10.3
				c0.9,1.9,2.2,3.7,3.6,5.3c5.1,5.8,11.6,9.5,18.6,12.3c10.1,4,20.4,5.7,31.2,3.3c11.4-2.6,19.1-10.9,20.6-22.5
				c0.9-7.2-0.5-14.2-2.9-20.9c-4.2-11.7-11.8-21.1-20.9-29.3c-2.9-2.7-6.2-4.8-10.1-5.9c-5.4-1.5-8.9,1.3-8.8,6.9
				c0,0.5,0.1,0.9,0.1,1.4c0.7,5.7,3.2,10.8,5.6,16c0.2,0.4,0.4,0.9,0.7,1.5c-2.5-1.5-4.7-3-7-4.2c-4.6-2.5-9.4-4.6-14.7-5
				c-5-0.3-7.5,2.5-6.3,7.3c1.8,7.2,5.8,13.1,10.7,18.5c2.6,2.9,5.6,5.4,8.4,8C1051.3-589.6,1051.1-589.6,1051-589.5z" />
					<path class="st4" d="M552.4-1078.4c0,3-0.4,6-1.8,8.7c-2.3,4.6-6.7,6.2-11.4,4.1c-3.7-1.7-6.3-4.6-8.6-7.8
				c-2.4-3.4-4.8-6.8-6.9-10.5c-5.3-9.4-13.6-14.1-23.8-15.9c-2.8-0.5-5.7-0.9-8.4-1.7c-6.2-1.7-10.5-7.2-10.7-13.7
				c-0.1-5.1,3-8.5,8.4-9.9c3.5-0.9,7.2-0.9,10.7-0.1c6.4,1.6,12.9,3.2,19.2,5.3c7,2.3,13.3,5.9,18.9,10.8c8,7.1,12.6,16,14,26.6
				C552.2-1081.1,552.3-1079.8,552.4-1078.4z" />
					<path class="st4" d="M738.6-242.1c-3,0.2-6-0.1-8.8-1.2c-4.8-2-6.6-6.3-4.8-11.1c1.4-3.8,4.2-6.6,7.2-9c3.2-2.6,6.5-5.2,10-7.5
				c9.1-5.8,13.2-14.4,14.4-24.7c0.3-2.9,0.6-5.7,1.2-8.5c1.3-6.3,6.5-10.9,13-11.5c5.1-0.5,8.7,2.5,10.4,7.8
				c1.1,3.4,1.4,7.1,0.7,10.6c-1.2,6.5-2.4,13.1-4.1,19.5c-1.9,7.1-5,13.7-9.6,19.5c-6.6,8.4-15.2,13.6-25.7,15.6
				C741.3-242.4,740-242.3,738.6-242.1z" />
					<path class="st6" d="M1382.5-796.8c-1.6,1.3-3,2.4-4.3,3.5c-6.5,5-13.7,8.8-21,12.4c-3.6,1.8-7.5,2-11.5,1.9
				c-3.9-0.2-6.5-3.2-6.4-7.2c0-3.1,1.2-5.9,2.7-8.6c2.8-5.1,6.7-9.4,10.9-13.4c10.1-9.6,19.2-20.2,28.7-30.3
				c4.1-4.3,8.2-8.5,11.5-13.4c1.2-1.7,3.4-2,4.6-0.4c1.7,2.2,3.2,4.7,4.3,7.3c6.2,14.5,7.7,29.7,4.6,45.1
				c-1.8,8.7-5.2,16.9-11.3,23.7c-1.5,1.7-3.3,2.8-5.4,3.7c-3.9,1.7-9.3-2.6-9.3-6.8c0.1-5.6,0.4-11.1,1.8-16.5
				C1382.4-796.1,1382.5-796.3,1382.5-796.8z" />
					<path class="st7" d="M220.4-223c-0.8-1.5-1.4-2.8-2.1-4.1c-3-6.1-4.8-12.6-6.5-19.2c-0.8-3.2-0.4-6.5,0.4-9.6
				c0.8-3.1,3.7-4.7,6.9-4c2.5,0.6,4.6,2,6.5,3.7c3.7,3.2,6.5,7,9,11.1c6.1,9.8,13.1,19,19.7,28.5c2.8,4,5.5,8.1,8.9,11.7
				c1.2,1.2,1,3.1-0.5,3.8c-2.1,1-4.4,1.8-6.6,2.2c-12.9,2.5-25.4,1.1-37.4-4c-6.8-2.9-12.8-7.1-17.3-13.2c-1.1-1.5-1.7-3.2-2.1-5
				c-0.7-3.4,3.8-7.1,7.2-6.4c4.5,1,9,2.2,13.1,4.3C219.8-223.2,220-223.2,220.4-223z" />
					<path class="st7" d="M778.8-440.1c-0.9-3.9-1.9-7.9-2.6-12c-0.3-2.1-0.3-4.3,0.2-6.4c0.8-3.6,4.2-4.9,7.3-3
				c1.5,1,2.9,2.3,4.1,3.7c3.9,4.3,6.2,9.6,8.4,14.8c3.3,7.8,6.5,15.7,9.5,23.6c0.9,2.2,1.4,4.7,1.5,7.1c0.2,2.4-1,3.4-3.4,3
				c-4.2-0.7-8.5-1.4-12.6-2.6c-8-2.3-15.9-5.2-23.1-9.4c-6.4-3.7-11.8-8.5-15.8-14.7c-0.7-1-1.2-2.2-1.6-3.3
				c-2.1-6,2-10.9,8.3-10.1c3.7,0.5,7.1,2,10.4,3.8C772.8-443.7,775.9-441.8,778.8-440.1z" />
					<path class="st5" d="M1033.8-91.8c-2.8,1.3-5.6,2.7-8.6,3.8c-1.5,0.6-3.2,0.9-4.8,0.9c-2.8,0-4.3-2.4-3.4-5
				c0.5-1.3,1.2-2.6,2.1-3.7c2.6-3.6,6.2-6.2,9.8-8.7c5.4-3.7,10.8-7.4,16.2-10.9c1.5-1,3.3-1.8,5.1-2.3c1.8-0.5,2.7,0.2,2.8,2.1
				c0.2,3.3,0.3,6.6,0.1,9.9c-0.5,6.4-1.4,12.8-3.4,18.9c-1.8,5.4-4.5,10.2-8.5,14.3c-0.7,0.7-1.4,1.2-2.2,1.7
				c-4.2,2.5-8.5,0.2-8.9-4.7c-0.2-2.9,0.4-5.7,1.2-8.4C1032-86.7,1033-89.3,1033.8-91.8z" />
					<path class="st7" d="M210.6-931.9c1.3-3.2,5.2-4.3,7.5-2c0.7,0.7,1.2,1.7,1.9,2.4c1.9,2.2,3.8,4.5,5.9,6.4c2.2,2.1,5,2.4,7.8,1.3
				c2.5-0.9,5-2,7.5-3c6.9-2.6,11.7-1.4,16.4,4.2c1.7,2,3.4,4.1,5.3,6.1c3,3.3,6.7,4.2,11,3.1c2.6-0.7,5.1-1.6,7.7-2.2
				c3.6-1,7.3-1.5,10.9,0.2c2.5,1.1,4.3,3.1,5.7,5.3c1.3,2,2.5,4,3.8,5.9c0.9,1.3,1.9,2.5,2.9,3.7c1.3,1.5,2.9,2.1,4.9,1.6
				c2.1-0.5,4.3-1.1,6.4-1.5c6-1.1,11.2,0.6,16,4.1c2,1.5,2.4,4,1,6c-1.3,1.8-3.9,2.6-5.9,1.2c-4.4-3-8.9-3.3-13.8-1.6
				c-7.1,2.4-12.7-0.1-17-5.9c-1.8-2.4-3.3-5.1-5-7.6c-2.2-3.4-3.2-3.9-7.2-2.8c-2.4,0.6-4.8,1.4-7.2,2.1
				c-8.6,2.5-15.9,0.3-21.8-6.4c-1.6-1.8-3.1-3.7-4.6-5.5c-2.2-2.5-3.2-2.8-6.3-1.6c-2.6,1-5.1,2.2-7.8,3.1
				c-6,2.1-11.5,1.2-16.5-2.8c-3.6-2.8-6.4-6.3-8.7-10.2C210.9-929.3,210.9-930.7,210.6-931.9z" />
					<path class="st9" d="M947.1-1198.8c-1.1-3.3,1.2-6.6,4.5-6.4c1,0.1,2,0.5,3,0.6c2.9,0.4,5.8,1,8.7,1.1c3,0.1,5.3-1.4,6.8-4
				c1.3-2.3,2.5-4.7,3.8-7.1c3.6-6.5,8-8.6,15.3-7.4c2.6,0.4,5.3,0.9,8,1.3c4.4,0.6,7.8-1.2,10.4-4.7c1.6-2.2,2.9-4.5,4.5-6.7
				c2.2-3.1,4.6-5.8,8.4-6.9c2.6-0.7,5.2-0.4,7.8,0.3c2.3,0.7,4.5,1.5,6.7,2.1c1.5,0.4,3,0.7,4.6,1c1.9,0.3,3.5-0.3,4.7-1.9
				c1.3-1.8,2.6-3.6,3.9-5.3c3.8-4.7,9-6.8,14.8-7.2c2.5-0.2,4.4,1.6,4.6,3.9c0.2,2.2-1.3,4.5-3.7,4.7c-5.3,0.5-8.9,3.2-11.6,7.7
				c-3.9,6.4-9.8,8.2-16.8,6.4c-2.9-0.7-5.8-1.7-8.7-2.6c-3.9-1.2-5-0.9-7.3,2.5c-1.4,2-2.7,4.2-4.1,6.2c-5,7.4-12,10.5-20.8,9.2
				c-2.4-0.4-4.7-0.8-7.1-1.2c-3.3-0.5-4.2-0.1-5.8,2.8c-1.3,2.4-2.5,5-3.9,7.4c-3.2,5.5-8,8.3-14.4,8.6c-4.6,0.2-8.9-0.7-13.2-2.2
				C949-1197.1,948.1-1198.1,947.1-1198.8z" />
					<path class="st5" d="M538-111.8c-1.2-3.6,1.3-7.3,5-7.1c1.1,0.1,2.2,0.5,3.3,0.7c3.2,0.5,6.4,1.1,9.6,1.2
				c3.4,0.2,5.9-1.6,7.6-4.5c1.5-2.6,2.8-5.3,4.2-7.9c3.9-7.2,8.9-9.5,17-8.2c2.9,0.5,5.9,1,8.8,1.4c4.9,0.6,8.7-1.3,11.5-5.2
				c1.7-2.4,3.2-5,4.9-7.4c2.4-3.4,5.1-6.5,9.3-7.7c2.9-0.8,5.8-0.5,8.7,0.4c2.5,0.7,4.9,1.6,7.4,2.3c1.7,0.5,3.4,0.8,5.1,1.1
				c2.2,0.4,3.9-0.3,5.2-2.2c1.4-2,2.8-4,4.4-5.9c4.2-5.2,10-7.5,16.5-8c2.7-0.2,4.9,1.7,5.2,4.4c0.3,2.5-1.5,5-4.1,5.2
				c-5.9,0.6-9.9,3.6-12.9,8.5c-4.3,7.1-10.8,9.1-18.7,7.2c-3.3-0.8-6.4-1.9-9.7-2.9c-4.3-1.3-5.5-1-8.1,2.7c-1.6,2.3-3,4.6-4.5,6.9
				c-5.5,8.3-13.3,11.6-23.1,10.2c-2.6-0.4-5.2-0.9-7.8-1.3c-3.7-0.6-4.7-0.1-6.4,3.1c-1.5,2.7-2.8,5.5-4.4,8.2
				c-3.6,6.1-8.9,9.2-16,9.5c-5.1,0.2-9.9-0.8-14.7-2.4C540.1-109.9,539.1-111,538-111.8z" />
					<path class="st8" d="M1094.7-820c1.8-3.4,6.2-4.1,8.5-1.3c0.7,0.9,1.2,2,1.8,2.9c1.9,2.6,3.7,5.3,5.8,7.8
				c2.2,2.5,5.2,3.2,8.5,2.3c2.9-0.7,5.7-1.6,8.6-2.4c7.9-2.2,13-0.2,17.7,6.5c1.7,2.5,3.3,4.9,5.1,7.3c2.9,3.9,7,5.3,11.7,4.6
				c2.9-0.4,5.8-1.1,8.8-1.6c4.1-0.7,8.2-0.8,12,1.4c2.6,1.5,4.4,3.9,5.7,6.5c1.2,2.3,2.3,4.7,3.5,7c0.8,1.5,1.8,3,2.7,4.4
				c1.2,1.8,3,2.6,5.2,2.3c2.4-0.4,4.8-0.7,7.2-0.9c6.7-0.6,12.3,2,17.2,6.3c2.1,1.8,2.1,4.7,0.4,6.7c-1.6,1.9-4.6,2.4-6.6,0.7
				c-4.5-3.8-9.4-4.6-15.1-3.4c-8.1,1.8-14-1.5-18.1-8.5c-1.7-2.9-3.1-5.9-4.6-8.9c-2-4-3.1-4.6-7.6-3.9c-2.7,0.4-5.4,1.1-8.1,1.5
				c-9.8,1.7-17.6-1.5-23.3-9.6c-1.5-2.2-3-4.4-4.5-6.6c-2.1-3-3.2-3.4-6.7-2.5c-3,0.8-5.9,1.8-8.9,2.5c-6.9,1.6-12.8,0-17.9-4.9
				c-3.7-3.5-6.3-7.7-8.5-12.2C1094.8-817.1,1094.9-818.6,1094.7-820z" />
					<g>
						<path class="st2" d="M903.1-511.2c-1.1-12.2-4.5-23.7-10.3-34.5c-1-1.9-2.5-3.4-3.1-4.3c-4.3-3.4-8.4-2.3-9.7,2
					c-0.5,1.7-0.6,3.6-0.5,5.4c0.6,12.6,4.7,24.2,10.9,35.1c1.1,2,2.4,3.9,3.8,5.8c1,1.3,2.3,2.1,4,1.3c2.6-1.1,4.5-2.8,4.6-6
					C902.9-507.9,903.2-509.6,903.1-511.2z" />
						<path class="st2" d="M919.5-511.5c0.8-3.7,1.2-7.5,1.6-11.2c0.8-7,0.2-13.9-2.8-20.4c-0.6-1.4-1.6-2.6-2-3.2c-3-2.3-6-1.5-8,1.6
					c-2.5,3.9-2.7,8.3-2.8,12.7c-0.1,8.1,1.6,16,3,23.9c0.2,1.4,1,2.8,1.8,3.9c1.9,2.6,5.3,2.4,6.8-0.4
					C918.2-506.8,919.1-509.2,919.5-511.5z" />
						<path class="st2" d="M938-509.3c1.5-6.6,2-13.3,1.4-20c-0.3-2.6-1.2-5.2-2.1-7.7c-0.7-1.7-2.2-2.8-4.2-2.7
					c-2,0.1-3.4,1.2-4.1,2.9c-0.8,1.9-1.7,3.9-1.9,5.9c-0.7,6.1-1.2,12.2-1.6,18.4c-0.1,1.9,0.4,3.9,0.8,5.8
					c0.6,2.3,2.3,3.5,4.6,3.9c2.2,0.3,4.1-0.5,5.6-2.3C937-506.6,937.7-507.9,938-509.3z" />
					</g>
					<g>
						<path class="st4" d="M86.2-1268.5c-4.9-11.2-11.9-21-20.8-29.4c-1.5-1.4-3.4-2.5-4.3-3.1c-5.2-1.9-8.7,0.6-8.5,5
					c0.1,1.8,0.6,3.6,1.3,5.3c4.7,11.8,12.2,21.5,21.6,29.8c1.7,1.5,3.6,3,5.5,4.3c1.3,0.9,2.8,1.2,4.2,0c2.1-1.9,3.4-4.1,2.4-7.1
					C87.1-1265.3,86.9-1267,86.2-1268.5z" />
						<path class="st4" d="M101.7-1274.1c-0.5-3.7-1.2-7.4-2-11.1c-1.5-6.9-4.3-13.2-9.2-18.4c-1-1.1-2.3-1.9-2.9-2.4
					c-3.6-1.3-6.2,0.5-7.1,4c-1.1,4.5,0.1,8.7,1.4,12.9c2.5,7.7,6.7,14.6,10.5,21.7c0.7,1.2,1.8,2.3,3,3.2c2.6,1.8,5.8,0.6,6.3-2.6
					C102-1269.2,102-1271.7,101.7-1274.1z" />
						<path class="st4" d="M119.9-1277.9c-0.7-6.7-2.3-13.2-5.1-19.4c-1.1-2.4-2.8-4.6-4.5-6.6c-1.2-1.4-3-1.9-4.8-1.2
					c-1.8,0.7-2.8,2.2-2.9,4.1c-0.2,2.1-0.4,4.2,0.1,6.2c1.3,6,2.8,12,4.4,17.9c0.5,1.8,1.6,3.6,2.6,5.2c1.3,2,3.3,2.6,5.6,2.2
					c2.2-0.4,3.7-1.8,4.6-4C119.9-1275,120-1276.5,119.9-1277.9z" />
					</g>
					<path class="st8" d="M644.6-972.6c1.7,3.9,4.4,7.6,7.2,10.5c8.5,8.8,21.6,13.9,33.3,7.8c8.3-4.3,14.8-14.9,17.1-23.6
				c2.4-9,1.4-15.3-3.5-23.1c-6.2-9.7-17.6-17.2-27.8-9.1c-4.3,3.4-8,7.4-12.5,10.6c-4.1,3-9.6,5.2-12.7,9.3
				C641.7-984.5,642.1-978.3,644.6-972.6z" />
					<path class="st9" d="M1057.7-370.1c-1.4-3.7-3.6-7.4-5.2-10.7c-3-6.2-6.2-12.2-9.2-18.4c-2.8-5.9-6.1-11.8-11.1-16.2
				c-12.2-10.6-20.6,3.3-24.8,13.4c-6.5,15.7-13.2,31.9-18.5,48c-2.8,8.7-5.1,20.1-4.6,29.3c0.8,13.8,12.4,22.6,26,19.1
				c13.2-3.5,19.4-14.9,26-25.6c4.7-7.6,11.4-11.5,16.9-18.3c3.5-4.3,5.9-9.6,5.6-15.1C1058.9-366.4,1058.4-368.3,1057.7-370.1z" />
					<path class="st9" d="M319.2-1076.5c1.3-4.3,3.4-8.2,7.7-8.6c3.9-0.3,5.6,3.3,6.9,6.9c0.7,2.1,0.9,4.9,2,6.7
				c1.7,2.8,4.8,2.4,7.6,1.7c5-1.3,9.6-3.9,14.3-1.5c1.8,0.9,3.2,3.1,4.3,5c1.4,2.6,0.4,5.3,1.4,7.7c2.2,5.5,7.4,2.5,11.3,0.8
				c4.3-1.9,8-0.9,9.7,3.7c0.8,2,0.4,5.2,1.4,6.9c1.3,2.3,3.7,1.5,5.9,1.1c2.2-0.5,5-1.2,6.6,0.8c1.5,1.9,1.5,6,0.9,8.8
				c-2.1,9.7-8.1,20.6-14.6,28c-8.5,9.6-21.1,12.1-33.4,10.3c-10.9-1.6-21.8-6.3-28.4-15.2c-11-14.8-9.2-38.4-5.3-55.3
				C317.9-1070.8,318.4-1073.7,319.2-1076.5z" />
					<path class="st6" d="M204.9-498.2c-3.3,3-7.2,5.2-11.1,3.3c-3.5-1.7-3.1-5.7-2.3-9.4c0.5-2.1,1.8-4.7,1.8-6.7
				c0-3.2-2.9-4.6-5.6-5.4c-4.9-1.5-10.3-1.7-13-6.2c-1.1-1.7-1.1-4.3-1-6.4c0.1-2.9,2.4-4.7,2.8-7.3c1-5.8-5-6-9.2-6.6
				c-4.7-0.7-7.3-3.4-6.4-8.2c0.4-2.1,2.3-4.6,2.4-6.6c0.1-2.6-2.4-3.2-4.4-4c-2.1-0.8-4.9-1.6-5.2-4.2c-0.3-2.5,1.9-5.9,3.8-7.9
				c6.9-7.2,17.6-13.4,27.1-16.3c12.3-3.7,24.3,0.7,33.9,8.6c8.5,7,15.3,16.8,16.3,27.8c1.6,18.4-12.2,37.5-24.3,50
				C209-502.3,207.1-500.1,204.9-498.2z" />
					<path class="st1" d="M565.1-679.7c12.7,0.7,30.5,0.3,40.1-11.9c3.6-4.6,3.2-10.3,4-15.8c1-6.2,4.7-9.7,10.2-12.4
				c4.2-2,8.7-3.8,11.3-7.6c3.5-5.2,1.2-11,2.9-16.6c1.2-3.7,4-6.2,6.7-8.7c5.5-5.3,11.7-16.7,5.9-24.2c-6.6-0.6-14.7-2.3-20.7,1.3
				c-9.6,5.6-12.2,14.8-24.8,13.6c-8.8-0.9-17.3,1.2-18.4,11.6c-0.5,4.5,1.3,10.1-1.4,14.2c-2.9,4.4-7.1,3.5-11.2,5.2
				c-9.3,4-9.6,15.5-8.8,24.1C561.3-704.5,564.2-679.8,565.1-679.7z" />
					<g>
						<path class="st6" d="M1198.6-1033.7c-0.2-0.9-0.7-1.9-1.4-2.8c-3.5-4.9-8.8-7.1-13.9-3.2c-3.3,2.5-6.2,5.6-5.6,10
					c0.5,3.6,4,8.8,7.6,10.7c3.6,1.9,5.4-0.1,8.1-2.8C1196.7-1025.1,1199.8-1029.3,1198.6-1033.7z" />
						<path class="st6" d="M1168.7-1006.1c-2.4-5.1-9.8-6.2-13.7-2.1c-3,3.1-4.1,4.7-1.3,8.7c1.9,2.7,4.4,5.6,7.7,5.7
					c4.3,0.1,8.6-6.2,8-10.2C1169.3-1004.8,1169-1005.5,1168.7-1006.1z" />
						<path class="st6" d="M1164-1054.1c-1.2-4.7-5.7-1.8-7.5,0.4c-2.5,3-4.1,6.1-0.7,9.4C1162.7-1037.8,1163.7-1048.6,1164-1054.1z" />
						<path class="st6" d="M1144.5-979.7c-2.8-3.2-3.6-4.4-7.5-2.6c-3.3,1.5-3.4,4.4-2.3,7.8C1137.1-967.1,1145-973.4,1144.5-979.7z" />
						<path class="st6" d="M1188.2-983c-1.2-3.2-3.7-6-6.8-3.7c-1.5,1.1-2.7,2.9-2.2,4.8c0.7,3.3,8.3,2.7,8.6-0.2" />
					</g>
					<path class="st6" d="M974.8-785.7c3-1.4,6.3-2.1,8.6,0.1c2.1,2,0.9,4.8-0.4,7.2c-0.8,1.4-2.3,2.9-2.8,4.4c-0.7,2.3,1,3.9,2.8,5
				c3.2,2.1,6.9,3.5,7.9,7.2c0.4,1.4-0.2,3.3-0.7,4.8c-0.7,2.1-2.7,2.8-3.6,4.6c-2,3.9,2.2,5.4,5.1,6.7c3.2,1.5,4.4,4,2.7,7.2
				c-0.8,1.4-2.7,2.8-3.1,4.2c-0.6,1.8,1,2.8,2.3,3.8c1.4,1,3.1,2.2,2.8,4.1c-0.3,1.8-2.6,3.8-4.5,4.8c-6.5,3.6-15.5,5.6-22.8,5.6
				c-9.5,0-17.1-5.8-22.1-13.5c-4.5-6.8-7.2-15.3-5.5-23.3c2.9-13.4,16.9-24,28.2-30.1C971-783.7,972.9-784.8,974.8-785.7z" />
					<g>
						<path class="st5" d="M113-1428.8c0,0,4.4,11.3-8.1,13.5c-14.5,2.6-15.6-1.7-25.7,4.5c-9.7,6-15.8,7.6-19.3,6.2
					c-3.5-1.4-5.2-5.4-2.6-8.5c2.2-2.6,7.6-3.8,11.7-4c4-0.2,7.9-2.8,7.3-4.4c-0.5-1.6-4-2.7-10-2.2c-6,0.5-19.2-2.7-19.8-10.9
					c-0.6-8.2,11.6-5.2,15.6-3.8c3.9,1.5,8.1,1.6,9-0.3c0.9-1.8-2.7-3.7-2.7-3.7s-11.9-5.4-15-12.2c-3.1-6.9-1.2-11.1,5.4-11
					c6.6,0,11.2,9.5,13.4,11.8c2.2,2.3,6.2,2.5,8.2,0.5c2-2-0.2-5.8-1-8.1c-0.8-2.3-4.9-10.3-0.7-13.6c4.3-3.2,8.2-2.3,11.2,1.8
					c3,4.1,1.2,11.3,1.9,16.2c0.8,4.8,5.5,3.7,6.7,2.3c1.2-1.4,1.7-6.4,2-8.3c0.3-1.9,1.6-5.7,5.8-5.5c4.1,0.1,8.4,3.8,7.6,8.7
					c-0.9,4.9-3.8,13.8-3.5,19.3C110.8-1435,113-1428.8,113-1428.8" />
					</g>
					<g>
						<path class="st7" d="M1193.2-1510.5c0,0-8.4-11.7,6.6-19.6c15-7.9,36.4-9.2,37.8,8.4c1.4,17.7-24.1,19.3-27.9,19.5
					C1199.3-1501.4,1193.2-1510.5,1193.2-1510.5" />
					</g>
					<path class="st8" d="M1369.8-539c0.7,6,5.7,11.3,11.7,12.4c2.3,0.4,4.8,0.2,6.7-1.1c1.3-0.8,2.2-2.1,3.1-3.3
				c1.5-2.1,2.9-4.4,2.7-6.9c-0.1-1.7-0.9-3.2-1.8-4.6c-2.8-4.4-8.9-11.5-15-10.3C1371.8-551.9,1369.2-543.7,1369.8-539z" />
					<path class="st4" d="M433.3-1483c0.7,6,5.7,11.3,11.7,12.4c2.3,0.4,4.8,0.2,6.7-1.1c1.3-0.8,2.2-2.1,3.1-3.3
				c1.5-2.1,2.9-4.4,2.7-6.9c-0.1-1.7-0.9-3.2-1.8-4.6c-2.8-4.4-8.9-11.5-15-10.3C435.2-1495.9,432.7-1487.7,433.3-1483z" />
					<path class="st1" d="M1262-1232.1c0.7,4.4,2,8.8,1.8,13.2c-0.3,7.1-4.6,13.6-10.4,17.7c-5.8,4.1-13,5.8-20,6
				c-4.4,0.1-8.9-0.3-13,1.1c-9.1,3-13.3,13.1-18.2,21.3c-0.9,1.5-2,3.1-3.7,3.8c-2.6,1.1-5.6-0.6-7.1-2.9s-1.7-5.3-1.9-8.1
				c-1-18.9,0.8-38,5.6-56.4c2.9-11.1,7-22.4,15.2-30.5s21.3-12.1,31.6-6.8c4.8,2.5,18.5,10.4,20.9,15.2
				C1265.7-1252.6,1260.8-1239.4,1262-1232.1z" />
					<path class="st9" d="M67.1-156.3c2.3-2.1,4.6-4.3,7-6.3c6.5-5.7,13.2-11,20.8-15.2c4.1-2.3,8.5-4.2,13.1-5.3
				c0.5-0.1,1.1-0.3,1.6-0.3c2-0.2,3.3,1.5,2.5,3.3c-0.3,0.7-0.6,1.3-1.1,1.8c-8.3,10.4-17.6,19.5-29.6,25.6
				c-2.2,1.1-4.4,2.2-6.7,2.9c-8.3,2.8-13.8,8.7-18,16.1c-1.2,2.1-2.2,4.3-3.3,6.5c-0.2,0.3-0.3,0.6-0.5,0.9
				c-0.7,1.1-1.6,1.5-2.6,1.1c-0.9-0.4-1.4-1.4-1-2.6c0.9-3,1.7-6,2.7-8.9c0.8-2.2,0.9-4.4,0.4-6.6c-0.7-2.9-1.3-6-2.5-8.7
				c-2.9-6.8-3.7-13.8-3-21.2c0.7-6.7,1.9-13.3,4.7-19.4c0.4-0.9,0.9-1.8,1.5-2.6c1.3-1.7,3.4-1.5,4.2,0.4c0.6,1.4,1.1,2.9,1.3,4.3
				c0.6,6.7,1.1,13.3,1.4,20c0.2,4.1,0,8.2,0,12.8c1-2,1.7-3.7,2.6-5.3c2.2-3.8,2.9-8.1,4-12.3c1.5-5.8,1.6-11.8,2.1-17.8
				c0.7-9.3,2.1-18.4,4.6-27.4c1.6-5.7,3.2-11.3,5.9-16.6c0.9-1.8,2-3.4,3-5.1c0.2-0.3,0.4-0.5,0.6-0.7c2.6-2.7,5.2-2.2,6.6,1.3
				c1.3,3.2,1.4,6.6,1.2,10c-0.5,7.2-2.9,13.8-5.7,20.3c-4.6,10.7-8.3,21.8-12,32.9c-0.6,1.7-1.2,3.5-1.7,5.3
				c0.2-0.3,0.5-0.6,0.7-0.9c5.4-8.7,10.7-17.4,16.3-26c6.9-10.4,14.3-20.4,22.7-29.7c1.7-1.9,3.8-3.7,5.7-5.5
				c0.3-0.3,0.6-0.5,1-0.7c2.1-1.2,4.2-0.2,4.1,2.1c-0.1,2.2-0.5,4.4-1.1,6.5c-2.4,8.2-7.3,15.1-12.5,21.7c-4.1,5.2-9,9.6-13.7,14.2
				c-4.3,4.3-8.3,8.9-12,13.8c-2.6,3.4-5.5,6.5-8.1,9.9c-2.5,3.3-4.8,6.8-7.1,10.3c-0.2,0.3-0.3,0.7-0.5,1
				C66.9-156.3,67-156.3,67.1-156.3z" />
					<path class="st1" d="M806.4-1529c2.8,0.5,5.3,1.3,7.6,3c3.8,2.8,4.6,7,2,10.9c-2.1,3.1-5.1,5-8.3,6.6c-3.4,1.7-6.9,3.3-10.5,4.6
				c-9.3,3.3-14.8,10.1-18,19.1c-0.9,2.5-1.7,5-2.8,7.4c-2.5,5.4-8.1,8.4-14,7.6c-4.6-0.6-7.2-4-7.7-9.1c-0.3-3.3,0.2-6.6,1.6-9.7
				c2.5-5.6,4.9-11.2,7.7-16.6c3.1-6,7.4-11.2,12.7-15.4c7.7-6.1,16.4-9,26.2-8.6C803.9-1529.3,805.2-1529.1,806.4-1529z" />
					<path class="st10" d="M141.4-846c3.3,1.2,6.4,2.8,8.9,5.4c4.2,4.3,4.2,9.8,0.1,14.1c-3.3,3.4-7.5,5.1-11.8,6.4
				c-4.7,1.3-9.4,2.6-14.1,3.4c-12.3,2.1-20.7,9.4-26.7,19.9c-1.7,2.9-3.2,5.9-5.2,8.6c-4.3,6.1-12,8.7-19.1,6.4
				c-5.6-1.8-8.1-6.6-7.6-13.1c0.4-4.2,1.8-8.2,4.1-11.7c4.3-6.4,8.5-12.9,13.3-19c5.2-6.8,11.6-12.3,19.2-16.5
				c10.9-6,22.4-7.6,34.6-5C138.4-846.8,139.8-846.4,141.4-846z" />
					<path class="st7" d="M1397.9-1185.2c-1.4,0.6-2.5,1.1-3.7,1.6c-5.6,2.2-11.4,3.5-17.2,4.5c-2.9,0.5-5.7-0.1-8.4-1
				c-2.7-0.9-3.9-3.5-3.1-6.3c0.7-2.2,2-3.9,3.6-5.5c3-3,6.6-5.3,10.3-7.2c9-4.7,17.5-10.3,26.2-15.5c3.7-2.2,7.5-4.3,10.8-7.1
				c1.2-1,2.8-0.7,3.3,0.7c0.7,1.9,1.3,3.9,1.5,6c1.4,11.4-0.5,22.3-5.8,32.6c-3,5.8-7,10.8-12.6,14.4c-1.4,0.9-2.9,1.3-4.5,1.5
				c-3.1,0.4-6-3.7-5.2-6.7c1.2-3.9,2.5-7.7,4.6-11.2C1397.7-1184.7,1397.7-1184.8,1397.9-1185.2z" />
					<path class="st5" d="M34-585.4c-2.6-2.3-2.1-6.3,0.9-7.7c0.9-0.4,2-0.5,2.9-0.9c2.7-1,5.5-1.9,8.1-3.2c2.7-1.3,4-3.8,4-6.8
				c0-2.7-0.1-5.4-0.1-8.1c0-7.4,2.9-11.4,9.8-13.9c2.5-0.9,5.1-1.8,7.6-2.7c4.1-1.6,6.3-4.8,6.8-9.1c0.3-2.7,0.4-5.4,0.7-8
				c0.4-3.7,1.2-7.3,4-10.1c2-1.9,4.4-2.9,7-3.5c2.3-0.5,4.6-0.9,6.9-1.4c1.5-0.4,3-0.8,4.5-1.4c1.9-0.7,3-2,3.2-4
				c0.3-2.2,0.5-4.4,0.9-6.5c1.1-6,4.6-10.2,9.5-13.5c2.1-1.4,4.6-0.8,6,1.2c1.3,1.8,1,4.6-1,5.9c-4.4,3-6.2,7.1-6.5,12.3
				c-0.3,7.5-4.6,11.9-11.6,13.8c-2.9,0.8-5.9,1.3-8.9,1.9c-4,0.8-4.8,1.6-5.2,5.7c-0.3,2.5-0.4,5-0.6,7.4
				c-0.8,8.9-5.4,14.9-13.8,18.1c-2.2,0.8-4.5,1.6-6.8,2.4c-3.1,1.1-3.7,2-3.7,5.3c0,2.8,0.2,5.6,0.1,8.4c-0.2,6.3-3,11.2-8.5,14.5
				c-3.9,2.4-8.2,3.7-12.6,4.5C36.5-584.8,35.2-585.2,34-585.4z" />
					<path class="st6" d="M1299.4-1383c-3.6-2.6-6.7-5.9-5.7-10c0.9-3.8,4.9-4.3,8.7-4.4c2.2,0,5,0.7,7,0.3c3.1-0.7,3.8-3.8,4-6.6
				c0.3-5.1-0.6-10.4,3.1-14c1.4-1.4,4-2,6.1-2.5c2.9-0.6,5.1,1.3,7.8,1.1c5.9-0.3,4.7-6.2,4.4-10.4c-0.4-4.7,1.7-7.9,6.6-8.1
				c2.2-0.1,5,1.2,7,0.8c2.5-0.5,2.6-3,2.9-5.2c0.3-2.3,0.5-5.2,2.9-6c2.3-0.8,6.2,0.5,8.6,2c8.5,5.1,17,14.2,21.9,22.8
				c6.4,11.1,4.8,23.8-0.8,34.9c-4.9,9.9-12.9,18.7-23.4,22.1c-17.5,5.7-39.3-3.5-54.1-12.5C1304.4-1380,1301.8-1381.4,1299.4-1383z
				" />
					<path class="st2" d="M1385.5-418.1c-6.8,9.4-15.1,23.2-10.5,36.5c1.7,5,6.4,7.5,10.1,10.8c4.3,3.8,5.1,8.3,4.4,13.9
				c-0.5,4.2-1.4,8.6,0.3,12.4c2.2,5.3,7.9,6.3,11.2,10.3c2.2,2.7,2.7,6.1,3.4,9.4c1.3,6.8,7.1,17.1,15.6,16.4
				c3.7-4.7,8.9-10.1,9.2-16.4c0.4-10.1-5.4-16.6,1.8-25.6c5-6.3,7.6-13.8,0.2-19.8c-3.2-2.6-8.3-3.9-10.1-8
				c-1.9-4.3,0.8-7.1,1.5-11.1c1.5-9.1-7.1-14.9-14.1-18.6C1406.4-408.9,1386-418.8,1385.5-418.1z" />
					<g>
						<path class="st3" d="M486.7-474.1c-0.9,0.6-1.7,1.4-2.5,2.5c-3.9,5.4-4.4,11.9,1.6,15.9c3.9,2.6,8.1,4.6,12.7,2.3
					c3.6-1.8,7.9-7.5,8.6-11.9c0.7-4.5-2.1-5.7-5.8-7.6C496.4-475.2,490.9-477,486.7-474.1z" />
						<path class="st3" d="M526.5-452.4c-4.6,4.4-3,12.7,2.7,15.3c4.4,2,6.4,2.6,9.7-1.7c2.2-3,4.4-6.7,3.3-10.2
					c-1.4-4.6-9.7-6.9-13.7-4.8C527.8-453.4,527.1-452.9,526.5-452.4z" />
						<path class="st3" d="M477.4-430.2c-4.5,2.9,0.1,6.7,3.1,7.8c4.1,1.5,7.9,2.2,10.2-2.7C495.1-434.7,483.4-431.8,477.4-430.2z" />
						<path class="st3" d="M563.3-436.2c-2.4,4.1-3.3,5.3,0,8.9c2.8,3,5.8,2,9.1-0.4C579.2-432.9,569.7-439,563.3-436.2z" />
						<path class="st3" d="M544.1-481.3c-3,2.4-5,6.1-1.4,8.5c1.7,1.2,4,1.8,5.9,0.6c3.2-2-0.2-9.8-3.3-9.1" />
					</g>
					<path class="st1" d="M287.9-1548.4c-12.8,0.1-30.5,1.8-39.2,14.6c-3.3,4.8-2.4,10.5-3,16c-0.6,6.3-4,10-9.4,13
				c-4,2.3-8.5,4.4-10.8,8.4c-3.2,5.4-0.4,11.1-1.8,16.7c-0.9,3.7-3.6,6.4-6.1,9.2c-5.1,5.6-10.5,17.5-4.3,24.5
				c6.6,0.2,14.8,1.3,20.6-2.7c9.2-6.2,11.2-15.6,23.8-15.2c8.9,0.3,17.2-2.3,17.6-12.8c0.2-4.5-2-10,0.4-14.2c2.6-4.6,6.9-4,10.8-6
				c9-4.6,8.5-16.1,7.2-24.6C293.4-1523.9,288.9-1548.4,287.9-1548.4z" />
				</g>
				<g>
					<path class="st5" d="M1033.8-1537.4c-2.8,1.3-5.6,2.7-8.6,3.8c-1.5,0.6-3.2,0.9-4.8,0.9c-2.8,0-4.3-2.4-3.4-5
				c0.5-1.3,1.2-2.6,2.1-3.7c2.6-3.6,6.2-6.2,9.8-8.7c5.4-3.7,10.8-7.4,16.2-10.9c1.5-1,3.3-1.8,5.1-2.3c1.8-0.5,2.7,0.2,2.8,2.1
				c0.2,3.3,0.3,6.6,0.1,9.9c-0.5,6.4-1.4,12.8-3.4,18.9c-1.8,5.4-4.5,10.2-8.5,14.3c-0.7,0.7-1.4,1.2-2.2,1.7
				c-4.2,2.5-8.5,0.2-8.9-4.7c-0.2-2.9,0.4-5.7,1.2-8.4C1032-1532.3,1033-1535,1033.8-1537.4z" />
				</g>
			</g>
		</pattern>
	</defs>
	<rect x="0" y="0" class="st13" width="1445.7" height="1445.7" />
</svg>
